<svg version="1.1" viewBox="0 0 400 400" xmlns="http://www.w3.org/2000/svg">
<g fill="#fff" stroke="#000" stroke-width="10">
<path transform="scale(.37037)" d="m306.9 226.1h-124v273.89h124c45.932 0 81.432-11.897 106.49-35.691 25.07-23.741 37.6-57.575 37.6-101.5 0-43.664-12.53-77.372-37.6-101.1-25.059-23.73-60.56-35.596-106.49-35.596zm-222.6 647.89v-729h222.6c81.728 0 143.43 18.573 185.1 55.698 41.998 36.735 62.996 90.766 62.996 162.11 0 71.93-20.999 126.3-62.996 163.1-41.671 36.735-103.37 55.097-185.1 55.097h-124v293z"/>
<path transform="scale(.37037)" d="m347.4 690.3 0.20039 29.595c-3.2695-1.8668-6.8344-3.2273-10.705-4.1027-3.7336-0.92812-7.8996-1.3922-12.498-1.3922-16.2 0-28.698 5.2945-37.505 15.894-8.5957 10.536-12.899 25.703-12.899 45.499v92.201h-28.898v-174.99h28.898v27.2c6.0012-10.6 13.869-18.468 23.604-23.604 9.6609-5.1996 21.431-7.8047 35.3-7.8047 1.9301 0 4.1027 0.16875 6.4969 0.50625 2.4047 0.20039 5.073 0.52734 8.0051 1.002zm91.093 22.897c-15.398 0-27.601 6.0328-36.598 18.098-8.9332 12.002-13.395 28.466-13.395 49.402s4.4297 37.431 13.3 49.496c8.9332 12.002 21.168 18.004 36.693 18.004 15.335 0 27.475-6.0645 36.408-18.204 8.9332-12.066 13.395-28.498 13.395-49.296 0-20.735-4.4613-37.167-13.395-49.296-8.9332-12.139-21.073-18.204-36.408-18.204zm0-24.405c25.007 0 44.634 8.1422 58.904 24.405 14.27 16.2 21.4 38.696 21.4 67.5 0 28.603-7.1297 51.1-21.4 67.5-14.27 16.2-33.898 24.3-58.904 24.3-25.133 0-44.835-8.1-59.094-24.3-14.133-16.4-21.199-38.897-21.199-67.5 0-28.804 7.0664-51.3 21.199-67.5 14.259-16.263 33.961-24.405 59.094-24.405zm128.01 179.2v-243.09h28.698v243.09zm156.69-154.8c-15.398 0-27.57 6.0328-36.503 18.098-8.9965 12.002-13.5 28.466-13.5 49.402s4.4402 37.431 13.3 49.496c9.007 12.002 21.241 18.004 36.703 18.004 15.335 0 27.464-6.0645 36.397-18.204 9.007-12.066 13.5-28.498 13.5-49.296 0-20.735-4.493-37.167-13.5-49.296-8.9332-12.139-21.062-18.204-36.397-18.204zm0-24.405c24.996 0 44.634 8.1422 58.904 24.405 14.333 16.2 21.495 38.696 21.495 67.5 0 28.603-7.1613 51.1-21.495 67.5-14.27 16.2-33.908 24.3-58.904 24.3-25.07 0-44.729-8.1-58.999-24.3-14.196-16.4-21.305-38.897-21.305-67.5 0-28.804 7.1086-51.3 21.305-67.5 14.27-16.263 33.929-24.405 58.999-24.405zm243.2 89.701c0-20.862-4.3348-37.03-13.004-48.495-8.5324-11.464-20.566-17.202-36.091-17.202-15.409 0-27.432 5.7375-36.102 17.202-8.5324 11.464-12.804 27.633-12.804 48.495 0 20.735 4.2715 36.84 12.804 48.305 8.6695 11.401 20.693 17.096 36.102 17.096 15.525 0 27.559-5.6953 36.091-17.096 8.6695-11.464 13.004-27.57 13.004-48.305zm28.698-85.493v153.3c0 29.795-6.6023 51.964-19.796 66.498-13.268 14.534-33.539 21.8-60.803 21.8-10.136 0-19.67-0.73828-28.603-2.2043-8.9332-1.5926-17.624-3.9656-26.093-7.098v-27.896c8.4691 4.5984 16.801 7.9629 24.996 10.093 8.2055 2.2043 16.601 3.3012 25.196 3.3012 18.805 0 32.906-4.8938 42.304-14.692 9.3973-9.8719 14.101-24.775 14.101-44.708v-14.196c-5.9379 10.336-13.532 18.035-22.802 23.098-9.334 5.1363-20.429 7.6992-33.296 7.6992-21.463 0-38.77-8.1633-51.901-24.5-13.131-16.4-19.702-38.064-19.702-65 0-27.127 6.5707-48.864 19.702-65.201 13.131-16.327 30.438-24.5 51.901-24.5 12.867 0 23.962 2.5418 33.296 7.6043 9.2707 5.1363 16.864 12.867 22.802 23.203v-26.599z"/>
</g>
</svg>